<svg width="192" height="192" viewBox="0 0 192 192" fill="none" xmlns="http://www.w3.org/2000/svg">
<g clip-path="url(#clip0_651_12207)">
<path fill-rule="evenodd" clip-rule="evenodd" d="M96 192C149.019 192 192 149.019 192 96C192 50.8244 160.796 12.9369 118.765 2.71541C154.327 15.0294 180.815 56.0715 178.339 85.1906C179.77 110.075 161.642 145.827 134.804 164.629C156.44 145.935 175.027 114.708 175.027 84.6088C175.027 47.5402 145.566 13.7756 118.659 2.68951C111.393 0.931538 103.805 0 96 0C42.9807 0 0 42.9807 0 96C0 149.019 42.9807 192 96 192Z" fill="#20983E"/>
</g>
<defs>
<clipPath id="clip0_651_12207">
<rect width="192" height="192" fill="white"/>
</clipPath>
</defs>
</svg>
