<svg viewBox="0 0 512 512" fill="none" xmlns="http://www.w3.org/2000/svg">
<path fill-rule="evenodd" clip-rule="evenodd" d="M256 512C397.385 512 512 397.385 512 256C512 114.615 397.385 0 256 0C244.616 0 233.405 0.743074 222.414 2.18336C221.944 2.12157 221.472 2.06047 221 2.00008C221.321 2.08085 221.642 2.16183 221.962 2.243C96.6684 18.8887 0 126.155 0 256C0 397.385 114.615 512 256 512ZM221.962 2.243C480.473 67.7467 469.609 262.66 400.489 357.256C400.508 356.539 400.517 355.819 400.517 355.097C400.517 309.489 363.544 272.516 317.936 272.516C272.328 272.516 235.356 309.489 235.356 355.097C235.356 400.705 272.328 437.677 317.936 437.677C340.286 437.677 360.562 428.799 375.429 414.377C407.382 385.776 439.495 319.019 447 291.5C471.72 200.862 435.248 30.1329 222.414 2.18336C222.264 2.20311 222.113 2.22299 221.962 2.243Z" fill="currentColor"/>
</svg>
