<svg width="240" height="168" viewBox="0 0 240 168" fill="none" xmlns="http://www.w3.org/2000/svg">
<path fill-rule="evenodd" clip-rule="evenodd" d="M119 134C145.51 134 167 112.51 167 86C167 59.4903 145.51 38 119 38C116.866 38 114.764 38.1393 112.703 38.4094C112.615 38.3978 112.526 38.3863 112.438 38.375C112.498 38.3901 112.558 38.4053 112.618 38.4206C89.1254 41.5416 71 61.6541 71 86C71 112.51 92.4903 134 119 134ZM112.618 38.4206C161.089 50.7025 159.052 87.2488 146.092 104.986C146.095 104.851 146.097 104.716 146.097 104.581C146.097 96.029 139.165 89.0967 130.613 89.0967C122.062 89.0967 115.129 96.029 115.129 104.581C115.129 113.132 122.062 120.064 130.613 120.064C134.803 120.064 138.604 118.4 141.392 115.696C147.383 110.334 153.405 97.8163 154.812 92.6562C159.447 75.6616 152.609 43.65 112.703 38.4094C112.675 38.4131 112.646 38.4168 112.618 38.4206Z" fill="#20983E"/>
<path d="M32.625 134.312C27.5 134.312 22.8958 133.375 18.8125 131.5C14.7708 129.625 11.6042 126.854 9.3125 123.188C7.02083 119.479 5.9375 114.896 6.0625 109.438L6.1875 109.062H17.3125C17.3125 113.979 18.7292 117.812 21.5625 120.562C24.4375 123.312 28.125 124.688 32.625 124.688C37.8333 124.688 41.875 122.854 44.75 119.188C47.625 115.521 49.0625 110.5 49.0625 104.125C49.0625 98.25 47.6042 93.4583 44.6875 89.75C41.8125 86 37.8125 84.125 32.6875 84.125C27.8542 84.125 24.3333 84.8542 22.125 86.3125C19.9583 87.7708 18.375 90 17.375 93L7.125 91.9375L12.375 42H60.4375V60H51.1875L50 52.9375H22.8125L19.875 78.5C21.125 77.5417 22.4792 76.7083 23.9375 76C25.3958 75.25 26.9792 74.6458 28.6875 74.1875C30.4375 73.7292 32.3333 73.4792 34.375 73.4375C39.9583 73.3958 44.7708 74.625 48.8125 77.125C52.8542 79.5833 55.9583 83.125 58.125 87.75C60.2917 92.3333 61.375 97.75 61.375 104C61.375 110.083 60.2708 115.396 58.0625 119.938C55.8958 124.479 52.6667 128.021 48.375 130.562C44.125 133.062 38.875 134.312 32.625 134.312ZM205.789 134.312C196.872 134.312 189.81 131.208 184.602 125C179.393 118.792 176.789 109.896 176.789 98.3125V76.75C176.789 65.1667 179.372 56.2708 184.539 50.0625C189.706 43.8125 196.747 40.6875 205.664 40.6875C214.622 40.6875 221.706 43.8125 226.914 50.0625C232.122 56.2708 234.727 65.1667 234.727 76.75V98.3125C234.727 109.938 232.143 118.854 226.977 125.062C221.81 131.229 214.747 134.312 205.789 134.312ZM205.789 124.688C211.247 124.688 215.372 122.688 218.164 118.688C220.997 114.688 222.414 108.729 222.414 100.812V74.125C222.414 66.25 220.977 60.3333 218.102 56.375C215.268 52.375 211.122 50.375 205.664 50.375C200.289 50.375 196.185 52.375 193.352 56.375C190.518 60.3333 189.102 66.25 189.102 74.125V100.812C189.102 108.688 190.539 114.646 193.414 118.688C196.289 122.688 200.414 124.688 205.789 124.688Z" fill="#20983E"/>
</svg>
