<svg width="512" height="512" viewBox="0 0 512 512" fill="none" xmlns="http://www.w3.org/2000/svg">
<g clip-path="url(#clip0_708_2436)">
<path fill-rule="evenodd" clip-rule="evenodd" d="M256 512C397.385 512 512 397.385 512 256C512 135.536 428.795 34.5053 316.719 7.24391C411.546 40.0853 482.174 149.526 475.573 227.174C479.389 293.53 431.053 388.86 359.492 439.003C417.183 389.15 466.742 305.883 466.742 225.623C466.742 126.778 388.189 36.7427 316.437 7.17549C297.059 2.48533 276.82 0 256 0C114.615 0 0 114.615 0 256C0 397.385 114.615 512 256 512ZM309.324 289.402C323.122 270.573 329.302 247.229 326.628 224.039C323.953 200.849 312.621 179.525 294.899 164.331C277.177 149.138 254.372 141.196 231.046 142.095C207.72 142.994 185.594 152.667 169.093 169.179C152.593 185.691 142.936 207.824 142.054 231.151C141.171 254.478 149.13 277.277 164.336 294.988C179.542 312.699 200.875 324.016 224.066 326.674C247.254 329.331 270.59 323.137 289.407 309.33C289.824 309.898 290.288 310.441 290.799 310.962L345.661 365.824C348.333 368.498 351.958 370.001 355.738 370.003C359.518 370.004 363.144 368.504 365.818 365.832C368.492 363.16 369.995 359.535 369.996 355.755C369.997 351.975 368.497 348.349 365.825 345.675L310.962 290.812C310.453 290.296 309.905 289.834 309.324 289.402ZM313 234.625C313 244.917 310.973 255.109 307.034 264.617C303.096 274.126 297.322 282.766 290.045 290.044C282.767 297.322 274.127 303.095 264.618 307.034C255.109 310.972 244.918 313 234.625 313C224.333 313 214.141 310.972 204.632 307.034C195.123 303.095 186.483 297.322 179.206 290.044C171.928 282.766 166.155 274.126 162.216 264.617C158.277 255.109 156.25 244.917 156.25 234.625C156.25 213.838 164.508 193.903 179.206 179.205C193.904 164.507 213.839 156.25 234.625 156.25C255.412 156.25 275.346 164.507 290.045 179.205C304.743 193.903 313 213.838 313 234.625ZM232.5 229.189L209.083 205.771C208.051 204.74 206.656 204.152 205.2 204.133C203.591 204.133 202.048 204.772 200.91 205.91C199.772 207.048 199.133 208.591 199.133 210.2C199.185 211.598 199.771 212.922 200.771 213.901L224.371 237.5L200.771 260.796C200.24 261.317 199.821 261.94 199.539 262.629C199.257 263.317 199.119 264.056 199.133 264.8C199.133 266.409 199.772 267.952 200.91 269.09C202.048 270.228 203.591 270.867 205.2 270.867C205.937 270.858 206.665 270.703 207.342 270.412C208.018 270.12 208.631 269.697 209.143 269.168L232.5 245.811L255.614 269.229C256.16 269.777 256.814 270.206 257.535 270.488C258.255 270.77 259.027 270.899 259.8 270.867C261.409 270.867 262.952 270.228 264.09 269.09C265.228 267.952 265.867 266.409 265.867 264.8C265.815 263.402 265.229 262.078 264.229 261.099L240.629 237.5L264.229 214.204C264.76 213.683 265.179 213.06 265.461 212.371C265.743 211.683 265.881 210.944 265.867 210.2C265.867 208.591 265.228 207.048 264.09 205.91C262.952 204.772 261.409 204.133 259.8 204.133C259.049 204.142 258.307 204.302 257.618 204.604C256.93 204.907 256.311 205.345 255.796 205.893L232.5 229.189Z" fill="#20983E"/>
</g>
<defs>
<clipPath id="clip0_708_2436">
<rect width="512" height="512" fill="white"/>
</clipPath>
</defs>
</svg>
